{"title":"Hulk [2003] BRRip x264 AAC-V3nom","uid":8110643,"size":373116815,"categoryP":"video","categoryS":"movies","magnet":"?xt=urn:btih:c804047c04f239750b9cff0028c217212cdf483d&amp;dn=Hulk+%5B2003%5D+BRRip+x264+AAC-V3nom&amp;tr=udp%3A%2F%2Ftracker.openbittorrent.com%3A80&amp;tr=udp%3A%2F%2Fopen.demonii.com%3A1337&amp;tr=udp%3A%2F%2Ftracker.coppersurfer.tk%3A6969&amp;tr=udp%3A%2F%2Fexodus.desync.com%3A6969","seeders":0,"leechers":1,"uploader":"V3nom","files":-1,"time":1360178706,"description":"[img]http://img541.imageshack.us/img541/658/hulkn.jpg[/img]\n\n[b][size=200][color=black]PLOT[/color][/size][/b]\n\n[code]Bruce Banner, a genetics researcher with a tragic past, suffers an accident \nthat causes him to transform into a raging green monster when he gets angry.  [/code]\n\n[b][size=200][color=black]IMDB[/color][/size][/b]\n\n[code]http://www.imdb.com/title/tt0286716/[/code]\n\n[b][size=200][color=black]MOVIE INFO[/color][/size][/b]\n\n[code]Hulk [2003] BRRip x264 AAC-V3nom\n\nFormat                                   : MPEG-4\nFormat profile                           : Base Media / Version 2\nCodec ID                                 : mp42\nFile size                                : 353 MiB\nDuration                                 : 2h 18mn\nOverall bit rate mode                    : Variable\nOverall bit rate                         : 357 Kbps\nEncoded date                             : UTC 2013-02-06 16:58:38\nTagged date                              : UTC 2013-02-06 17:47:31\n\nVideo\nID                                       : 1\nFormat                                   : AVC\nFormat/Info                              : Advanced Video Codec\nFormat profile                           : &lt;a class=&quot;__cf_email__&quot; href=&quot;/cdn-cgi/l/email-protection&quot; data-cfemail=&quot;c984a8a0a78985fbe7f8&quot;&gt;[email&amp;#160;protected]&lt;/a&gt;&lt;script cf-hash='f9e31' type=&quot;text/javascript&quot;&gt;\n/* &lt;![CDATA[ */!function(){try{var t=&quot;currentScript&quot;in document?document.currentScript:function(){for(var t=document.getElementsByTagName(&quot;script&quot;),e=t.length;e--;)if(t[e].getAttribute(&quot;cf-hash&quot;))return t[e]}();if(t&amp;&amp;t.previousSibling){var e,r,n,i,c=t.previousSibling,a=c.getAttribute(&quot;data-cfemail&quot;);if(a){for(e=&quot;&quot;,r=parseInt(a.substr(0,2),16),n=2;a.length-n;n+=2)i=parseInt(a.substr(n,2),16)^r,e+=String.fromCharCode(i);e=document.createTextNode(e),c.parentNode.replaceChild(e,c)}}}catch(u){}}();/* ]]&gt; */&lt;/script&gt;\nFormat settings, CABAC                   : Yes\nFormat settings, ReFrames                : 4 frames\nCodec ID                                 : avc1\nCodec ID/Info                            : Advanced Video Coding\nDuration                                 : 2h 18mn\nBit rate mode                            : Variable\nBit rate                                 : 254 Kbps\nWidth                                    : 640 pixels\nHeight                                   : 272 pixels\nDisplay aspect ratio                     : 1.85:1\nOriginal display aspect ratio            : 1.85:1\nFrame rate mode                          : Variable\nFrame rate                               : 23.976 fps\nMinimum frame rate                       : 5.994 fps\nMaximum frame rate                       : 23.981 fps\nColor space                              : YUV\nChroma subsampling                       : 4:2:0\nBit depth                                : 8 bits\nScan type                                : Progressive\nBits/(Pixel*Frame)                       : 0.061\nStream size                              : 253 MiB (72%)\nWriting library                          : x264 core 112\n\nAudio\nID                                       : 2\nFormat                                   : AAC\nFormat/Info                              : Advanced Audio Codec\nFormat profile                           : LC\nCodec ID                                 : 40\nDuration                                 : 2h 18mn\nBit rate mode                            : Variable\nBit rate                                 : 96.0 Kbps\nMaximum bit rate                         : 143 Kbps\nChannel(s)                               : 2 channels\nChannel positions                        : Front: L R\nSampling rate                            : 48.0 KHz\nCompression mode                         : Lossy\nDelay relative to video                  : 209ms\nStream size                              : 94.7 MiB (27%)\nEncoded date                             : UTC 2013-02-06 16:58:38\nTagged date                              : UTC 2013-02-06 17:47:25[/code]\n\n[b][size=200][color=black]SOURCE[/color][/size][/b]\n\n[code]Hulk (2003) 720p BrRip x264 - 800MB - YIFY(Thanks)[/code]\n\n[b][size=200][color=black]SCREENSHOTS[/color][/size][/b]\n\n[img]http://img845.imageshack.us/img845/5794/hulk2003brripx264aacv3n.jpg[/img]\n\n[img]http://kastatic.com/i2/users/133df62bbf28e62494bb17fe11078f1a.gif[/img][img]http://kastatic.com/i2/users/133df62bbf28e62494bb17fe11078f1a.gif[/img]","torrent":{"xt":"urn:btih:c804047c04f239750b9cff0028c217212cdf483d","amp;dn":"Hulk+%5B2003%5D+BRRip+x264+AAC-V3nom","amp;tr":["udp%3A%2F%2Ftracker.openbittorrent.com%3A80","udp%3A%2F%2Fopen.demonii.com%3A1337","udp%3A%2F%2Ftracker.coppersurfer.tk%3A6969","udp%3A%2F%2Fexodus.desync.com%3A6969"],"infoHash":"c804047c04f239750b9cff0028c217212cdf483d","infoHashBuffer":{"type":"Buffer","data":[200,4,4,124,4,242,57,117,11,156,255,0,40,194,23,33,44,223,72,61]},"announce":[],"urlList":[]}}